<?xml version="1.0" standalone="no"?>
<!DOCTYPE svg PUBLIC "-//W3C//DTD SVG 20010904//EN"
 "http://www.w3.org/TR/2001/REC-SVG-20010904/DTD/svg10.dtd">
<svg version="1.0" xmlns="http://www.w3.org/2000/svg"
 width="256.000000pt" height="256.000000pt" viewBox="0 0 256.000000 256.000000"
 preserveAspectRatio="xMidYMid meet">
<metadata>
Created by potrace 1.11, written by Peter Selinger 2001-2013
</metadata>
<g transform="translate(0.000000,256.000000) scale(0.100000,-0.100000)"
fill="#000000" stroke="none">
<path d="M1074 2534 c-763 -128 -1238 -905 -1003 -1642 238 -744 1093 -1098
1789 -741 754 387 922 1389 337 2006 -284 299 -719 445 -1123 377z m1130 -661
c-26 -67 -427 -1152 -446 -1205 l-10 -28 -203 0 -203 0 -213 -146 -214 -145
-8 93 c-4 51 -6 126 -4 166 l4 73 -200 402 c-109 221 -230 466 -268 545 -67
141 -68 142 -36 120 18 -12 236 -168 486 -346 l453 -322 437 429 c240 237 439
430 443 431 4 0 -4 -30 -18 -67z"/>
</g>
</svg>
